<?xml version="1.0" encoding="utf-8"?><svg xmlns="http://www.w3.org/2000/svg" xmlns:xlink="http://www.w3.org/1999/xlink"><symbol viewBox="0 0 11 28" id="icon-angle" xmlns="http://www.w3.org/2000/svg"><path d="M9.797 8.5a.54.54 0 01-.156.359L3.5 15l6.141 6.141c.094.094.156.234.156.359s-.063.266-.156.359l-.781.781c-.094.094-.234.156-.359.156s-.266-.063-.359-.156L.861 15.359C.767 15.265.705 15.125.705 15s.063-.266.156-.359L8.142 7.36c.094-.094.234-.156.359-.156s.266.063.359.156l.781.781a.508.508 0 01.156.359z"/></symbol><symbol viewBox="0 0 9 28" id="icon-caret" xmlns="http://www.w3.org/2000/svg"><path d="M9 14a.99.99 0 01-.297.703l-7 7A.996.996 0 011 22c-.547 0-1-.453-1-1V7c0-.547.453-1 1-1a.99.99 0 01.703.297l7 7A.996.996 0 019 14z"/></symbol><symbol viewBox="0 0 448 512" id="icon-check" xmlns="http://www.w3.org/2000/svg"><path d="M438.6 105.4c12.5 12.5 12.5 32.8 0 45.3l-256 256c-12.5 12.5-32.8 12.5-45.3 0l-128-128c-12.5-12.5-12.5-32.8 0-45.3s32.8-12.5 45.3 0L160 338.7l233.4-233.3c12.5-12.5 32.8-12.5 45.3 0z"/></symbol><symbol viewBox="0 0 20 20" id="icon-close" xmlns="http://www.w3.org/2000/svg"><path d="M.639.638a.903.903 0 011.276 0l17.447 17.447a.903.903 0 11-1.277 1.277L.639 1.915a.903.903 0 010-1.277z"/><path d="M19.361.638a.903.903 0 00-1.276 0L.638 18.085a.903.903 0 001.277 1.277L19.361 1.915a.903.903 0 000-1.277z"/></symbol><symbol viewBox="0 0 448 512" id="icon-phone" xmlns="http://www.w3.org/2000/svg"><path d="M384 32c35.3 0 64 28.7 64 64v320c0 35.3-28.7 64-64 64H64c-35.3 0-64-28.7-64-64V96c0-35.3 28.7-64 64-64h320zm-90.7 96.7c-9.7-2.6-19.9 2.3-23.7 11.6l-20 48c-3.4 8.2-1 17.6 5.8 23.2l24.6 20.2c-16.6 35.2-45.1 63.7-80.3 80.3l-20.2-24.7c-5.6-6.8-15-9.2-23.2-5.8l-48 20c-9.3 3.9-14.2 14-11.6 23.7l12 44C111.1 378 119 384 128 384c123.7 0 224-100.3 224-224 0-9-6-16.9-14.7-19.3l-44-12z"/></symbol><symbol viewBox="0 0 50 50" id="icon-telegram" xmlns="http://www.w3.org/2000/svg"><path d="M46.137 6.552c-.75-.636-1.928-.727-3.146-.238h-.002c-1.281.514-36.261 15.518-37.685 16.131-.259.09-2.521.934-2.288 2.814.208 1.695 2.026 2.397 2.248 2.478l8.893 3.045c.59 1.964 2.765 9.21 3.246 10.758.3.965.789 2.233 1.646 2.494.752.29 1.5.025 1.984-.355l5.437-5.043 8.777 6.845.209.125c.596.264 1.167.396 1.712.396.421 0 .825-.079 1.211-.237 1.315-.54 1.841-1.793 1.896-1.935l6.556-34.077c.4-1.82-.156-2.746-.694-3.201zM22 32l-3 8-3-10 23-17-17 19z"/></symbol><symbol viewBox="0 0 24 24" id="icon-whatsapp" xmlns="http://www.w3.org/2000/svg"><path d="M12.012 2c-5.506 0-9.989 4.478-9.99 9.984a9.964 9.964 0 001.333 4.993L2 22l5.232-1.236a9.981 9.981 0 004.774 1.215h.004c5.505 0 9.985-4.48 9.988-9.985a9.922 9.922 0 00-2.922-7.066A9.923 9.923 0 0012.012 2zm-.002 2a7.95 7.95 0 015.652 2.342 7.93 7.93 0 012.336 5.65c-.002 4.404-3.584 7.987-7.99 7.987a7.999 7.999 0 01-3.817-.971l-.673-.367-.745.175-1.968.465.48-1.785.217-.8-.414-.72a7.98 7.98 0 01-1.067-3.992C4.023 7.582 7.607 4 12.01 4zM8.477 7.375a.917.917 0 00-.666.313c-.23.248-.875.852-.875 2.08 0 1.228.894 2.415 1.02 2.582.123.166 1.726 2.765 4.263 3.765 2.108.831 2.536.667 2.994.625.458-.04 1.477-.602 1.685-1.185.208-.583.209-1.085.147-1.188-.062-.104-.229-.166-.479-.29-.249-.126-1.476-.728-1.705-.811-.229-.083-.396-.125-.562.125-.166.25-.643.81-.79.976-.145.167-.29.19-.54.065-.25-.126-1.054-.39-2.008-1.24-.742-.662-1.243-1.477-1.389-1.727-.145-.25-.013-.386.112-.51.112-.112.248-.291.373-.437.124-.146.167-.25.25-.416.083-.166.04-.313-.022-.438s-.547-1.357-.77-1.851c-.186-.415-.384-.425-.562-.432-.145-.006-.31-.006-.476-.006z"/></symbol></svg>